<?xml version="1.0" encoding="UTF-8" standalone="no"?>
<!-- Created with Inkscape (http://www.inkscape.org/) -->

<svg
   version="1.1"
   id="svg1"
   width="462.72"
   height="462.72"
   viewBox="0 0 462.72 462.72"
   sodipodi:docname="icon.svg"
   inkscape:version="1.4 (e7c3feb1, 2024-10-09)"
   xmlns:inkscape="http://www.inkscape.org/namespaces/inkscape"
   xmlns:sodipodi="http://sodipodi.sourceforge.net/DTD/sodipodi-0.dtd"
   xmlns="http://www.w3.org/2000/svg"
   xmlns:svg="http://www.w3.org/2000/svg">
  <sodipodi:namedview
     id="namedview1"
     pagecolor="#000000"
     bordercolor="#000000"
     borderopacity="0.25"
     inkscape:showpageshadow="2"
     inkscape:pageopacity="0.0"
     inkscape:pagecheckerboard="0"
     inkscape:deskcolor="#d1d1d1"
     showgrid="false"
     inkscape:zoom="1.7461964"
     inkscape:cx="231.36"
     inkscape:cy="231.36"
     inkscape:window-width="1920"
     inkscape:window-height="1027"
     inkscape:window-x="0"
     inkscape:window-y="25"
     inkscape:window-maximized="1"
     inkscape:current-layer="g1" />
  <defs
     id="defs1" />
  <ellipse
     style="fill:#ffd42a;stroke-width:1.16338"
     id="path2"
     cx="230.21468"
     cy="231.93269"
     rx="220.47922"
     ry="223.91525" />
  <ellipse
     style="fill:#1a1a1a;stroke-width:1.10408"
     id="path2-3"
     cx="231.16151"
     cy="233.31633"
     rx="209.24039"
     ry="212.50128" />
  <g
     id="g1"
     transform="matrix(1.7255547,0,0,1.6475574,-182.64862,-117.35753)">
    <path
       style="fill:#ffd42a;stroke-width:0.73247"
       d="m 128.49705,274.0587 0.0621,-4.90119 7.73489,0.0275 c 9.46748,0.0337 13.95778,0.27406 17.4035,0.93195 2.92924,0.55926 3.80404,0.58992 15.11819,0.52976 5.82075,-0.0309 8.32867,-0.17584 9.49282,-0.5484 1.34577,-0.4307 10.40668,-0.52176 60.64856,-0.60958 56.1405,-0.0982 59.18988,-0.0716 61.5586,0.53599 2.30169,0.59037 3.25572,0.61129 12.4813,0.2738 5.49402,-0.20098 10.85929,-0.51663 11.92284,-0.70144 1.06354,-0.18482 7.35254,-0.34759 13.97554,-0.36171 l 12.04181,-0.0256 v 4.36607 c 0,2.40134 0.0808,4.57678 0.17963,4.83431 0.14932,0.38927 -18.61389,0.47512 -111.25117,0.50904 L 128.43485,278.96 Z m 33.20384,-8.35224 c -4.49905,-0.82287 -7.26736,-2.16097 -10.25751,-4.9581 -4.51866,-4.22699 -6.50046,-8.42407 -6.79554,-14.39176 -0.15271,-3.0883 -0.0572,-4.15135 0.58438,-6.50435 2.83861,-10.4106 13.28811,-16.90373 24.6176,-15.29692 7.70958,1.09342 14.98249,8.26263 16.70916,16.47092 1.03398,4.91535 0.45878,8.67417 -2.11259,13.80568 -2.82879,5.64519 -6.0678,8.50422 -11.58736,10.22801 -2.4177,0.75506 -8.60466,1.11353 -11.15814,0.64652 z m 8.0759,-9.86374 c 2.21751,-0.97103 3.74656,-2.26709 5.25,-4.45 l 1.34809,-1.95739 v -3.73678 c 0,-2.99306 -0.13203,-3.98168 -0.66345,-4.96732 -1.27303,-2.36123 -2.71489,-3.83448 -4.71303,-4.81569 -1.74841,-0.85858 -2.41427,-0.98525 -5.17109,-0.98371 -3.67169,0.002 -5.4717,0.65171 -7.92215,2.8592 -1.79772,1.61947 -2.64972,3.42395 -2.9653,6.28026 -0.4746,4.29566 1.35341,8.232 4.9238,10.6026 3.42147,2.27174 6.55166,2.6408 9.91313,1.16883 z m -5.53143,-5.66209 c -1.13433,-0.45231 -2.39746,-1.63922 -3.02208,-2.83971 -1.54744,-2.97415 0.94316,-6.60969 4.52811,-6.60969 5.21926,0 6.64876,7.00863 1.89008,9.26677 -1.37067,0.65043 -2.12171,0.69081 -3.39611,0.18263 z m 142.91947,15.29954 c -1.35362,-0.27936 -3.79018,-1.15609 -5.41459,-1.94831 -7.77175,-3.79022 -12.24851,-12.30521 -11.24801,-21.39429 0.27158,-2.46726 0.61085,-3.55162 1.94521,-6.21723 0.88895,-1.77581 2.39314,-4.10038 3.34266,-5.16572 1.84133,-2.06593 5.89718,-4.74612 8.53995,-5.64335 2.52038,-0.8557 7.22498,-1.26758 10.30773,-0.90243 3.28116,0.38863 4.30374,0.67769 6.59371,1.86386 5.83658,3.0232 9.72496,7.6844 11.25615,13.49331 0.79665,3.02223 0.73341,8.92049 -0.12197,11.37812 -2.04495,5.87547 -5.78745,10.56812 -10.21315,12.80611 -2.053,1.03815 -7.71758,2.29704 -10.19847,2.2665 -1.28047,-0.0157 -3.43562,-0.25722 -4.78922,-0.53657 z m 9.14122,-9.92771 c 2.16176,-1.02433 3.93352,-2.69439 5.42893,-5.11734 1.24062,-2.0101 1.41763,-5.9909 0.38775,-8.72003 -1.00209,-2.65547 -3.35961,-5.23977 -5.71843,-6.26852 -2.61234,-1.13931 -6.77464,-1.16031 -9.23947,-0.0465 -2.30326,1.04069 -4.52001,3.24833 -5.46313,5.44066 -1.07904,2.50828 -1.12315,6.9018 -0.0889,8.85604 1.33026,2.51365 3.17332,4.29944 5.78659,5.60681 3.29646,1.64916 5.80383,1.71925 8.90669,0.24898 z m -5.80116,-5.22355 c -1.01039,-0.36632 -2.80217,-2.34776 -3.19248,-3.5304 -0.80155,-2.42873 0.60783,-5.27229 3.0053,-6.06352 2.37645,-0.78431 5.7794,0.97776 6.36062,3.29356 0.87439,3.48388 -3.00937,7.44749 -6.17344,6.30036 z m -181.84683,0.0943 c -0.0424,-2.13998 -0.0819,-10.31431 -0.0879,-18.16517 l -0.0107,-14.27433 6.54833,-0.22804 c 3.60157,-0.12541 8.67138,-0.1262 11.26623,-0.001 5.00901,0.24023 8.18507,-0.0708 13.125,-1.28545 1.54698,-0.38035 3.60375,-0.69492 4.57062,-0.69901 1.29009,-0.005 2.22577,-0.27821 3.51586,-1.02486 1.69268,-0.97963 10.37178,-9.55157 10.37178,-10.24371 0,-0.18598 -1.01754,-1.50485 -2.26119,-2.93085 -1.24365,-1.42598 -3.25225,-3.91705 -4.46356,-5.53571 -1.21132,-1.61866 -4.25594,-5.11683 -6.76583,-7.77372 l -4.56344,-4.83072 -6.88225,-3.35287 c -3.78524,-1.8444 -7.47556,-3.65232 -8.2007,-4.01793 -1.00206,-0.50523 -1.31845,-0.5521 -1.31845,-0.19532 0,1.01574 0.4908,1.6304 1.70788,2.13893 4.01685,1.67835 5.59154,6.46287 3.47545,10.55981 -0.99125,1.91913 -2.65117,3.53879 -4.16906,4.06793 l -0.92892,0.32382 -0.147,10.79175 c -0.10041,7.37429 -0.27758,11.01442 -0.55936,11.49491 -0.2268,0.38675 -0.41718,0.50541 -0.42305,0.2637 -0.0126,-0.51757 -1.06545,-0.60442 -1.06545,-0.0879 0,0.19337 -0.32576,0.35159 -0.72392,0.35159 -0.39815,0 -0.62615,-0.15822 -0.50663,-0.35159 0.1195,-0.19336 0.0497,-0.35158 -0.15504,-0.35158 -0.20478,0 -0.37234,0.16756 -0.37234,0.37234 0,0.20478 -0.1447,0.2829 -0.32155,0.1736 -0.17686,-0.10933 -0.38843,1e-5 -0.47016,0.24294 -0.0817,0.24291 -0.1691,-0.033 -0.19418,-0.61309 -0.0251,-0.58012 -0.14501,-1.45029 -0.26653,-1.93372 -0.12153,-0.48343 -0.26026,-5.16539 -0.3083,-10.40438 -0.0481,-5.23897 -0.20051,-9.7085 -0.33882,-9.9323 -0.13832,-0.22378 -0.55874,-0.40689 -0.93428,-0.40689 -0.77696,0 -3.26119,-2.42142 -4.13063,-4.02617 -0.39368,-0.72665 -0.58294,-1.93954 -0.58766,-3.76633 -0.006,-2.42664 0.0979,-2.84606 1.04778,-4.21902 0.70383,-1.01732 1.65949,-1.81395 2.8724,-2.39444 2.21581,-1.06049 2.22559,-1.09629 2.22559,-8.14851 v -5.23887 l 0.96685,0.48707 c 0.53179,0.26789 1.44151,0.59449 2.02163,0.72578 3.41943,0.77391 8.67302,2.66999 13.71184,4.94877 0.96687,0.43726 2.90548,1.20828 4.30803,1.71339 1.40256,0.50511 4.09219,1.57578 5.97697,2.37926 1.88477,0.80349 5.80006,2.37093 8.70065,3.48317 7.59272,2.9115 17.42142,6.84021 21.13695,8.44883 1.76334,0.76343 3.38968,1.38804 3.61409,1.38804 0.56331,0 3.46507,-2.32121 7.32846,-5.86228 1.78721,-1.63809 4.47684,-4.01628 5.97697,-5.28485 1.50011,-1.26856 3.81514,-3.32124 5.14452,-4.56151 4.58914,-4.28153 7.91085,-6.71954 8.43754,-6.19286 0.12121,0.12121 0.22037,1.51781 0.22037,3.10353 v 2.88317 l -1.31844,0.8767 c -0.72515,0.48218 -3.38454,2.83686 -5.90975,5.23261 -2.52522,2.39575 -6.40145,5.99633 -8.61386,8.00129 -2.21241,2.00495 -4.14205,3.85142 -4.28811,4.10324 -0.1859,0.32055 0.13045,0.586 1.05477,0.88502 0.72616,0.23491 5.03833,1.88991 9.58258,3.67777 4.54424,1.78785 8.7369,3.40053 9.31702,3.58372 0.97858,0.30904 1.06322,0.47077 1.17197,2.23918 0.0645,1.04834 0.01,3.8442 -0.1233,6.21301 l -0.24051,4.30693 h -4.32069 -4.3207 l -5.02293,-2.30822 c -2.76262,-1.26952 -8.26301,-3.88005 -12.22311,-5.80116 -3.9601,-1.92112 -7.39596,-3.49295 -7.63527,-3.49295 -0.2393,0 -0.52275,0.22844 -0.62989,0.50765 -0.10719,0.2792 -1.27113,1.22319 -2.58662,2.09774 -1.3155,0.87454 -2.85636,1.96789 -3.42415,2.42963 l -1.03236,0.83955 1.27015,1.54544 c 0.69858,0.84999 3.09946,3.3133 5.33528,5.47404 l 4.06514,3.92863 17.67118,0.31928 c 9.71916,0.17561 20.91456,0.3063 24.87869,0.29042 l 7.20752,-0.0289 0.008,18.33019 0.008,18.33019 -15.47779,0.25569 c -8.51278,0.14063 -20.66683,0.19826 -27.00899,0.12806 -11.33417,-0.12544 -11.52777,-0.13963 -11.32992,-0.8308 1.0374,-3.62408 1.23812,-4.96527 1.23442,-8.24824 -0.005,-4.00215 -0.3418,-5.63924 -2.08719,-10.13049 -1.25221,-3.22221 -4.14048,-7.37827 -6.91956,-9.95689 -2.3521,-2.18244 -8.04451,-5.48191 -10.36928,-6.01031 -1.04135,-0.2367 -4.33887,-0.43276 -7.34032,-0.43646 -4.71766,-0.006 -5.80372,0.10279 -8.08648,0.80813 -4.74984,1.46775 -7.88015,3.36825 -11.64188,7.06813 -2.9753,2.92639 -3.62906,3.79768 -5.17126,6.89193 -0.97097,1.94813 -2.02121,4.42206 -2.33388,5.49762 -0.83008,2.85535 -0.77294,7.88478 0.12961,11.41089 0.40423,1.5792 0.73401,3.08223 0.73286,3.34006 -0.001,0.37008 -1.18638,0.47374 -5.62538,0.49222 l -5.62322,0.0234 z m 104.27634,-8.72517 c 0.11659,-0.43508 0.21399,-3.08516 0.2164,-5.88906 l 0.005,-5.09799 -14.41461,-0.0107 -14.41463,-0.0107 -0.004,4.40568 c -0.002,2.42314 -0.10136,4.99535 -0.22049,5.71604 l -0.21661,1.31033 6.46113,0.10446 c 3.55362,0.0575 10.04204,0.14019 14.41871,0.18389 l 7.95737,0.0795 z M 138.20716,230.0185 c 0.90697,-0.46901 1.77859,-2.03744 1.77859,-3.20045 0,-0.24636 -0.4096,-0.93472 -0.91022,-1.52966 -0.75787,-0.90069 -1.16457,-1.08175 -2.42985,-1.08175 -1.26528,0 -1.67198,0.18106 -2.42985,1.08175 -1.05029,1.24819 -1.10968,1.73173 -0.38484,3.13341 1.02549,1.98308 2.55196,2.54004 4.37617,1.5967 z m 50.47917,-12.69215 c 0.61616,-0.16558 0.38415,-0.52213 -1.77001,-2.71999 -1.36352,-1.39118 -3.05432,-3.24139 -3.75731,-4.11155 l -1.27819,-1.58215 -2.16495,2.10951 c -2.745,2.6747 -5.0713,5.41861 -4.81296,5.67695 0.41846,0.41845 12.51245,0.9688 13.78342,0.62723 z m -4.6953,-17.39109 c 1.72723,-1.3653 3.3254,-3.0829 3.0594,-3.28804 -0.0704,-0.0542 -2.73849,-1.32591 -5.92914,-2.82582 -3.19063,-1.49993 -6.17906,-2.96821 -6.64092,-3.26287 -0.79089,-0.50455 -0.77201,-0.41571 0.32437,1.5259 0.64027,1.1339 1.61691,2.73089 2.17028,3.54887 0.97179,1.43647 4.77121,5.72027 5.07345,5.72027 0.0815,0 0.9557,-0.63824 1.94256,-1.41831 z m -40.91723,-11.7875 c 1.17099,-0.82019 1.91735,-2.49113 1.65212,-3.69871 -0.22276,-1.01422 -2.73818,-3.13588 -3.71787,-3.13588 -0.87473,0 -3.49412,1.81358 -3.98196,2.75698 -0.44047,0.85174 -0.43441,1.11227 0.049,2.11042 0.30333,0.62629 0.94543,1.44858 1.4269,1.82731 1.07123,0.84263 3.46396,0.91584 4.5718,0.13988 z m 108.86241,65.97299 c -0.0804,-0.0805 -0.14617,-19.79276 -0.14617,-43.80485 v -43.65836 l 6.38492,-0.23128 c 3.5117,-0.1272 12.60224,-0.23128 20.2012,-0.23128 h 13.81631 l 1.94558,2.43843 c 1.07007,1.34113 2.11349,2.5422 2.31871,2.66902 0.20522,0.12684 1.69333,1.99605 3.30693,4.15382 1.61359,2.15776 4.26349,5.66355 5.88866,7.79064 1.62518,2.1271 4.50717,5.92423 6.40443,8.43807 3.91099,5.18201 6.0119,7.5591 6.68085,7.5591 0.25252,0 1.70728,0.40229 3.23281,0.89398 1.52552,0.49169 4.35581,1.27964 6.28953,1.751 1.93372,0.47136 6.60102,1.82103 10.37179,2.99928 3.77076,1.17826 8.12163,2.48547 9.66861,2.90491 l 2.81269,0.76263 0.0156,22.7678 0.0155,22.76779 h -6.45566 c -5.98062,0 -6.44275,-0.0452 -6.28038,-0.61528 1.18355,-4.15473 1.37874,-10.58427 0.42871,-14.12112 -1.49554,-5.56771 -3.43656,-9.08208 -7.11282,-12.8784 -2.60767,-2.69284 -3.91618,-3.66665 -6.97983,-5.19453 -4.67761,-2.33279 -7.0847,-2.85985 -13.00868,-2.84837 -6.32658,0.0123 -8.03468,0.37407 -12.4813,2.64384 -6.00976,3.06767 -9.36026,6.45183 -12.32231,12.44608 -2.58111,5.22337 -3.09478,10.66619 -1.59257,16.87476 0.46769,1.93297 0.81806,3.54677 0.77861,3.58624 -0.14348,0.14347 -34.03962,0.27841 -34.18165,0.13608 z m 18.83948,-41.69222 v -2.98849 h -4.21903 -4.21904 v 2.98849 2.98847 h 4.21904 4.21903 z m 10.93236,-12.70442 3.65845,-0.2231 -0.11397,-3.90803 c -0.0627,-2.14941 0.092,-5.41105 0.34356,-7.24809 0.42929,-3.13402 0.53922,-11.12652 0.15825,-11.50749 -0.0952,-0.0952 -5.40284,-0.24066 -11.79484,-0.32336 l -11.62187,-0.15035 v 11.60705 11.60704 l 5.53748,0.10636 c 3.04562,0.0585 6.58081,0.14167 7.85599,0.18472 1.27519,0.0431 3.96482,-0.0221 5.97696,-0.14481 z m 23.25998,-0.24577 c 0.57893,-0.12903 -7.58781,-10.68138 -11.20144,-14.47351 l -2.68028,-2.81268 0.28957,1.58213 c 0.15927,0.87018 0.29908,3.48069 0.31072,5.80116 0.0119,2.32047 0.0578,5.58852 0.10267,7.26234 l 0.0815,3.0433 6.41644,-0.17191 c 3.52905,-0.0946 6.53539,-0.19842 6.68076,-0.23083 z m -70.40569,13.47757 c 0,-0.51798 -0.23439,-0.70318 -0.89,-0.70318 -0.4895,0 -0.95968,-0.19777 -1.04486,-0.43948 -0.0852,-0.24172 -0.19887,-10.36744 -0.25266,-22.50163 l -0.0978,-22.06214 6.79571,1.3e-4 6.79573,1.3e-4 -0.19476,22.54425 c -0.18162,21.02421 -0.23668,22.57491 -0.81653,22.99891 -0.38908,0.2845 -0.7019,0.32501 -0.83587,0.10826 -0.33404,-0.54051 -7.43209,-0.57138 -7.6124,-0.0331 -0.081,0.24172 -0.3016,0.43949 -0.49028,0.43949 -0.18866,0 -0.24524,-0.15822 -0.12574,-0.35159 0.11951,-0.19337 0.0497,-0.35158 -0.15504,-0.35158 -0.20478,0 -0.37234,0.23732 -0.37234,0.52737 0,0.29006 -0.1582,0.52738 -0.35158,0.52738 -0.19337,0 -0.35159,-0.31642 -0.35159,-0.70317 z m -1.98315,-52.27769 c -0.2271,-0.16107 -0.51214,-1.92346 -0.65727,-4.06395 l -0.25625,-3.77955 h 7.29999 7.3 l -0.18953,3.7135 c -0.10421,2.04241 -0.24561,3.76852 -0.31417,3.8358 -0.28188,0.27654 -12.81332,0.55623 -13.18277,0.2942 z"
       id="path1"
       sodipodi:nodetypes="ccssssssssccscsccssscssssssscssscsssssssssssssssssssssscssscscsccssssscccscscsssssccsssssccssssssssssssssscssscssssssssssssscssssssssccccssscsscsscsscccssscsssccsssscsccccccccscssccsssssssssscsssscssssssssssssssccsscsssssssssscccscssssssscssccccccccccsscssccccsccsscsccccsssssscccssscsssssssssccccsss" />
  </g>
</svg>
