<?xml version="1.0" encoding="UTF-8" standalone="no"?>
<!-- Created with Inkscape (http://www.inkscape.org/) -->

<svg
   version="1.1"
   id="svg1"
   width="462.72"
   height="462.72"
   viewBox="0 0 462.72 462.72"
   xmlns="http://www.w3.org/2000/svg"
   xmlns:svg="http://www.w3.org/2000/svg">
  <defs
     id="defs1" />
  <g
     id="g1"
     transform="matrix(1.4947338,0,0,1.4052695,-118.54502,-72.57707)">
    <path
       style="fill:#FFFFFF"
       d="m 203.38834,341.52 c -0.28457,-0.528 -0.53336,-2.904 -0.55287,-5.28 l -0.0355,-4.32 34.38476,-0.0219 34.38476,-0.0219 0.29107,2.42189 c 0.39521,3.28843 0.36143,7.11747 -0.0679,7.7019 -0.2293,0.31211 -12.16346,0.48 -34.11978,0.48 -33.27467,0 -33.77468,-0.014 -34.28453,-0.96 z M 306.96,321.57928 c -2.904,-0.18543 -35.45144,-0.36463 -72.32765,-0.39821 -63.40917,-0.0578 -67.06125,-0.10665 -67.29815,-0.90107 -0.56438,-1.89261 -0.47861,-9.24759 0.11476,-9.84098 0.47341,-0.47343 15.88202,-0.59902 73.49491,-0.59902 40.09275,0 73.01303,0.11707 73.15618,0.26016 0.14314,0.14308 0.50782,1.85568 0.81038,3.80578 0.7295,4.7017 -0.26789,8.38307 -2.19043,8.08492 -0.264,-0.0409 -2.856,-0.22615 -5.76,-0.41158 z M 119.08696,298.00837 c -0.28983,-0.83139 -0.52696,-2.87579 -0.52696,-4.54311 0,-2.47791 0.16512,-3.11985 0.90424,-3.51542 0.60027,-0.32125 39.83258,-0.49034 116.70901,-0.50299 l 115.80476,-0.019 -0.26468,3.7261 c -0.14557,2.04936 -0.49528,4.3201 -0.77712,5.0461 l -0.51245,1.32 H 235.01884 119.61391 Z M 82.715148,273.98009 82.8,267.28878 l 10.56,0.0375 c 12.92541,0.0459 19.05575,0.37416 23.76,1.27233 3.99912,0.76354 5.19343,0.80539 20.64,0.72325 7.94674,-0.0423 11.37065,-0.24006 12.96,-0.7487 1.8373,-0.58799 14.20764,-0.71232 82.8,-0.83221 76.64542,-0.13396 80.80854,-0.0977 84.04243,0.73176 3.14236,0.80599 4.44485,0.83456 17.04,0.3738 7.50067,-0.27438 14.82557,-0.70533 16.27757,-0.95765 1.452,-0.25232 10.038,-0.47453 19.08,-0.49381 l 16.44,-0.035 v 5.96074 c 0,3.27841 0.11036,6.24841 0.24523,6.6 0.20387,0.53145 -25.41247,0.64865 -151.88485,0.69496 l -152.130084,0.0557 z m 45.331282,-11.40284 c -6.14228,-1.1234 -9.92171,-2.95024 -14.00398,-6.769 -6.16907,-5.77087 -8.8747,-11.5009 -9.27756,-19.64825 -0.20849,-4.21627 -0.0781,-5.6676 0.79781,-8.88 3.8754,-14.21301 18.1415,-23.0777 33.609,-20.88401 10.52545,1.49277 20.45474,11.28049 22.81206,22.48679 1.41163,6.71065 0.62636,11.84235 -2.8842,18.8481 -3.86198,7.70706 -8.28402,11.61033 -15.81956,13.96372 -3.30075,1.03084 -11.74745,1.52025 -15.23357,0.88265 z M 139.072,249.11086 c 3.02744,-1.3257 5.11497,-3.09513 7.16752,-6.07534 l 1.84048,-2.6723 v -5.10161 c 0,-4.08626 -0.18027,-5.43597 -0.90577,-6.78161 -1.73801,-3.22364 -3.70648,-5.23498 -6.43443,-6.57458 -2.38701,-1.17217 -3.29607,-1.34511 -7.0598,-1.34299 -5.01275,0.003 -7.4702,0.88973 -10.81566,3.90349 -2.45431,2.21097 -3.61751,4.67452 -4.04835,8.57408 -0.64795,5.86462 1.84774,11.23867 6.72218,14.47512 4.67115,3.10147 8.9446,3.60534 13.53383,1.59574 z m -7.55175,-7.73012 c -1.54862,-0.61752 -3.27311,-2.23795 -4.12586,-3.8769 -2.11264,-4.06044 1.28763,-9.02384 6.18196,-9.02384 7.12555,0 9.07717,9.56849 2.58042,12.6514 -1.8713,0.88799 -2.89664,0.94313 -4.63652,0.24934 z M 326.64,262.26831 c -1.848,-0.38138 -5.1745,-1.57834 -7.39221,-2.6599 C 308.63745,254.43384 302.5256,242.8088 303.89152,230.4 c 0.37077,-3.3684 0.83396,-4.84881 2.65569,-8.48802 1.21362,-2.42441 3.26721,-5.59802 4.56353,-7.05246 2.51387,-2.8205 8.0511,-6.4796 11.65911,-7.70455 3.44093,-1.16823 9.86386,-1.73055 14.07254,-1.23204 4.47958,0.53059 5.87565,0.92522 9.00203,2.54462 7.96835,4.12741 13.27693,10.49109 15.36737,18.42166 1.08761,4.12607 1.00129,12.17863 -0.16651,15.53388 -2.79187,8.02146 -7.90128,14.42806 -13.94344,17.48345 -2.80284,1.41733 -10.53636,3.13603 -13.92339,3.09433 -1.74815,-0.0215 -4.69045,-0.35117 -6.53845,-0.73256 z m 12.48,-13.55373 c 2.95132,-1.39846 5.3702,-3.6785 7.4118,-6.9864 1.69375,-2.74428 1.93541,-8.17904 0.52937,-11.90496 -1.36809,-3.62537 -4.58667,-7.15355 -7.80704,-8.55805 -3.56648,-1.55544 -9.24902,-1.58411 -12.61413,-0.0636 -3.1445,1.42079 -6.1709,4.43475 -7.45849,7.42783 -1.47314,3.42441 -1.53337,9.42263 -0.12141,12.09064 1.81613,3.43174 4.33235,5.86978 7.9001,7.65466 4.50048,2.25149 7.92364,2.34719 12.1598,0.33992 z m -7.92,-7.1314 c -1.37942,-0.50011 -3.82564,-3.20526 -4.35851,-4.81986 -1.09431,-3.3158 0.82983,-7.19796 4.10298,-8.27819 3.24442,-1.07076 7.89026,1.33489 8.68378,4.49652 1.19376,4.75634 -4.10852,10.16763 -8.42825,8.60153 z m -248.265055,0.12878 c -0.05778,-2.92158 -0.111781,-14.08152 -0.12,-24.79987 L 82.8,197.42418 l 8.940045,-0.31133 c 4.917025,-0.17122 11.838545,-0.17231 15.381145,-0.002 6.83852,0.32797 11.17462,-0.0967 17.91881,-1.75494 2.112,-0.51929 4.92,-0.94874 6.24,-0.95434 1.76129,-0.007 3.03871,-0.37982 4.8,-1.39917 2.31092,-1.33744 14.16,-13.04022 14.16,-13.98516 0,-0.25389 -1.38918,-2.05448 -3.08706,-4.0013 -1.69789,-1.94682 -4.44012,-5.34774 -6.09386,-7.5576 -1.65373,-2.20986 -5.81038,-6.98572 -9.23699,-10.61302 l -6.23021,-6.59509 -9.39594,-4.5775 C 111.02817,143.15469 105.99,140.68643 105,140.18729 c -1.36806,-0.68976 -1.8,-0.75375 -1.8,-0.26667 0,1.38674 0.67005,2.2259 2.33167,2.92017 5.48397,2.29135 7.6338,8.82339 4.74483,14.41669 -1.3533,2.6201 -3.61948,4.83131 -5.69178,5.55372 l -1.2682,0.44209 -0.20069,14.73336 c -0.13714,10.06769 -0.37897,15.03736 -0.76366,15.69335 -0.30964,0.528 -0.56955,0.69 -0.57757,0.36 -0.0172,-0.70659 -1.4546,-0.82517 -1.4546,-0.12 0,0.264 -0.444747,0.48 -0.988328,0.48 -0.54358,0 -0.854833,-0.216 -0.691672,-0.48 0.163161,-0.264 0.06791,-0.48 -0.211672,-0.48 -0.27958,0 -0.508328,0.22875 -0.508328,0.50833 0,0.27958 -0.197551,0.38623 -0.439003,0.23701 -0.241452,-0.14923 -0.53029,2e-5 -0.641863,0.33167 -0.111573,0.33164 -0.230872,-0.045 -0.265109,-0.83701 -0.03424,-0.792 -0.197985,-1.98 -0.363886,-2.64 -0.1659,-0.66 -0.355304,-7.05202 -0.420897,-14.2045 -0.06559,-7.15247 -0.273753,-13.25447 -0.462579,-13.56 -0.188825,-0.30552 -0.762811,-0.5555 -1.275524,-0.5555 -1.06073,0 -4.452308,-3.30583 -5.639295,-5.49671 -0.537484,-0.99206 -0.795855,-2.64793 -0.802315,-5.14194 -0.0086,-3.31295 0.133626,-3.88557 1.430471,-5.76 0.960906,-1.38888 2.265616,-2.47649 3.92153,-3.269 C 95.986649,141.60454 96,141.55566 96,131.92767 v -7.15232 l 1.32,0.66496 c 0.726,0.36573 1.968,0.81162 2.76,0.99087 4.66835,1.05657 11.84078,3.64518 18.72,6.75627 1.32,0.59696 3.96668,1.6496 5.88151,2.33919 1.91483,0.6896 5.58683,2.15132 8.16,3.24828 2.57317,1.09695 7.91849,3.23687 11.87849,4.75536 10.36593,3.97491 23.78448,9.33855 28.85707,11.53469 2.40739,1.04227 4.62774,1.89503 4.93412,1.89503 0.76905,0 4.73065,-3.16901 10.00513,-8.00344 2.43998,-2.2364 6.11198,-5.4832 8.16,-7.2151 2.04803,-1.7319 5.20861,-4.5343 7.02353,-6.22757 6.26529,-5.84532 10.80024,-9.1738 11.51929,-8.45475 0.16548,0.16547 0.30086,2.07216 0.30086,4.23707 v 3.93622 l -1.8,1.19691 c -0.99,0.65829 -4.62071,3.873 -8.06824,7.14378 -3.44753,3.27078 -8.73953,8.18645 -11.76,10.9237 -3.02047,2.73725 -5.65491,5.25812 -5.85431,5.60193 -0.25381,0.43763 0.17809,0.80002 1.44,1.20826 0.9914,0.32072 6.87855,2.58019 13.08255,5.02104 6.204,2.44085 11.928,4.64255 12.72,4.89266 1.33599,0.4219 1.45156,0.64272 1.60002,3.05702 0.088,1.43125 0.0123,5.24827 -0.16833,8.48227 l -0.32835,5.88 h -5.8988 -5.8988 l -6.85752,-3.15128 c -3.77164,-1.73321 -11.28102,-5.29721 -16.68751,-7.92 -5.40649,-2.6228 -10.09729,-4.76872 -10.424,-4.76872 -0.3267,0 -0.71368,0.31188 -0.85995,0.69307 -0.14628,0.38118 -1.73539,1.66995 -3.53136,2.86392 -1.79597,1.19397 -3.89963,2.68664 -4.67481,3.31704 l -1.40941,1.14618 1.73406,2.1099 c 0.95373,1.16044 4.23152,4.52347 7.28396,7.47341 l 5.5499,5.36352 24.12545,0.4359 c 13.269,0.23975 28.55345,0.41817 33.96545,0.39648 l 9.84,-0.0394 0.0109,25.02516 0.0109,25.02517 -21.13094,0.34907 c -11.62201,0.19199 -28.21523,0.27067 -36.87383,0.17484 -15.47389,-0.17126 -15.7382,-0.19064 -15.46809,-1.13424 1.41631,-4.94776 1.69034,-6.7788 1.68529,-11.26085 -0.006,-5.46391 -0.46664,-7.69895 -2.84952,-13.83059 -1.70958,-4.39909 -5.65276,-10.07313 -9.44689,-13.59358 -3.21119,-2.97956 -10.98271,-7.48413 -14.15658,-8.20552 -1.4217,-0.32314 -5.92361,-0.59082 -10.02131,-0.59587 -6.44076,-0.008 -7.9235,0.14025 -11.04,1.10329 -6.48469,2.00383 -10.75834,4.59849 -15.894,9.64971 -4.06201,3.99523 -4.95456,5.18476 -7.06003,9.40917 -1.325595,2.65966 -2.759435,6.03718 -3.186313,7.50558 -1.13325,3.89825 -1.055252,10.76464 0.176965,15.57863 0.551858,2.15599 1.002093,4.20799 1.000522,4.56 -0.0023,0.50524 -1.619708,0.64676 -7.68,0.67199 L 83.04,247.02392 Z M 225.29746,229.8 c 0.15919,-0.594 0.29214,-4.212 0.29544,-8.04 l 0.006,-6.96 -19.67945,-0.0148 -19.67946,-0.0148 -0.005,6.01483 c -0.003,3.30816 -0.13836,6.81985 -0.30101,7.80377 l -0.29573,1.78893 8.82101,0.14259 c 4.85156,0.0784 13.70982,0.1914 19.68503,0.25106 L 225.00803,230.88 Z M 95.971797,213.85459 C 97.21003,213.21427 98.4,211.073 98.4,209.4852 c 0,-0.33635 -0.559201,-1.27612 -1.242669,-2.08837 C 96.122654,206.16719 95.567415,205.92 93.84,205.92 c -1.727415,0 -2.282654,0.24719 -3.317331,1.47683 -1.433907,1.7041 -1.514986,2.36424 -0.52541,4.27787 1.400048,2.70739 3.484048,3.46777 5.974538,2.17989 z m 68.916313,-17.32787 c 0.84121,-0.22606 0.52445,-0.71284 -2.4165,-3.71344 -1.86154,-1.89931 -4.16988,-4.42528 -5.12964,-5.61328 l -1.74503,-2.16 -2.95569,2.88 c -3.74759,3.65161 -6.92354,7.39771 -6.57084,7.75041 0.57128,0.57128 17.08251,1.32263 18.8177,0.85631 z m -6.41022,-23.74305 c 2.35808,-1.86396 4.53997,-4.20891 4.17683,-4.48898 -0.0961,-0.0741 -3.73872,-1.81019 -8.09472,-3.85794 -4.356,-2.04776 -8.43592,-4.05233 -9.06648,-4.4546 -1.07974,-0.68882 -1.05396,-0.56754 0.44285,2.08322 0.87413,1.54805 2.20747,3.72833 2.96297,4.84508 1.32673,1.96112 6.51385,7.80955 6.92648,7.80955 0.11133,0 1.30476,-0.87135 2.65207,-1.93633 z m -55.86195,-16.09281 c 1.59867,-1.11975 2.61765,-3.401 2.25554,-5.04964 -0.30412,-1.38465 -3.73828,-4.28122 -5.075792,-4.28122 -1.194207,0 -4.770323,2.47597 -5.436353,3.76394 -0.601325,1.16283 -0.593064,1.51852 0.06692,2.88123 0.414113,0.85505 1.290745,1.97768 1.948071,2.49473 1.462484,1.15039 4.729144,1.25034 6.241614,0.19096 z M 251.23955,246.76 C 251.1298,246.65 251.04,219.73809 251.04,186.95575 V 127.3515 l 8.71695,-0.31575 c 4.79432,-0.17366 17.20512,-0.31575 27.57955,-0.31575 h 18.86261 l 2.65619,3.32904 c 1.4609,1.83097 2.88542,3.47072 3.16559,3.64387 0.28018,0.17316 2.31182,2.72509 4.51476,5.67096 2.20295,2.94587 5.8207,7.73213 8.03946,10.63613 2.21876,2.904 6.15338,8.088 8.7436,11.52 5.33946,7.07471 8.2077,10.32 9.12097,10.32 0.34476,0 2.33087,0.54923 4.41358,1.22051 2.08271,0.67128 5.94674,1.74702 8.58674,2.39053 2.64,0.64352 9.012,2.48616 14.16,4.09476 5.148,1.6086 11.088,3.39326 13.2,3.9659 l 3.84,1.04117 0.0212,31.08357 0.0212,31.08356 h -8.81354 c -8.165,0 -8.79592,-0.0618 -8.57424,-0.84 1.61583,-5.67221 1.88232,-14.4501 0.58529,-19.27875 -2.04178,-7.60127 -4.69174,-12.39925 -9.71073,-17.58215 -3.5601,-3.67637 -5.34653,-5.00587 -9.52916,-7.0918 -6.38608,-3.18482 -9.67234,-3.90438 -17.76,-3.88871 -8.63732,0.0167 -10.96928,0.5107 -17.04,3.60948 -8.20479,4.18812 -12.77903,8.80831 -16.82295,16.99193 -3.52384,7.13116 -4.22513,14.56194 -2.17425,23.03813 0.63852,2.63897 1.11686,4.84221 1.06299,4.89609 -0.19588,0.19587 -46.47234,0.38011 -46.66624,0.18578 z M 276.96,189.84 v -4.08 h -5.76 -5.76 v 4.08 4.08 h 5.76 5.76 z m 14.92533,-17.3446 4.99467,-0.3046 -0.15561,-5.3354 c -0.0856,-2.93447 0.12548,-7.3874 0.46903,-9.8954 0.5861,-4.2787 0.73617,-15.19041 0.21606,-15.71052 -0.1299,-0.1299 -7.37618,-0.32856 -16.10283,-0.44146 L 265.44,140.60275 v 15.84644 15.84643 l 7.56,0.14529 c 4.158,0.0799 8.9844,0.1934 10.72533,0.25219 1.74093,0.0588 5.41293,-0.0302 8.16,-0.1977 z m 31.75551,-0.33553 C 324.43122,171.9837 313.28165,157.57718 308.34817,152.4 l -3.65924,-3.84 0.39534,2.16 c 0.21743,1.188 0.40832,4.752 0.4242,7.92 0.0159,3.168 0.079,7.62968 0.1402,9.91485 l 0.11133,4.15485 8.76,-0.2347 c 4.818,-0.12909 8.92238,-0.2709 9.12084,-0.31513 z M 227.52,190.56 c 0,-0.70717 -0.32,-0.96 -1.21506,-0.96 -0.66829,0 -1.31021,-0.27 -1.4265,-0.6 -0.11629,-0.33 -0.27151,-14.15408 -0.34494,-30.72018 l -0.1335,-30.12017 9.2778,1.7e-4 9.2778,1.8e-4 -0.26589,30.77837 c -0.24796,28.70315 -0.32312,30.82023 -1.11476,31.39909 -0.53118,0.38841 -0.95826,0.44371 -1.14117,0.14775 -0.45605,-0.73791 -10.1466,-0.78006 -10.39278,-0.0452 -0.11055,0.33 -0.41175,0.6 -0.66933,0.6 -0.25758,0 -0.33483,-0.216 -0.17167,-0.48 0.16316,-0.264 0.0679,-0.48 -0.21167,-0.48 -0.27958,0 -0.50833,0.324 -0.50833,0.72 0,0.396 -0.216,0.72 -0.48,0.72 -0.264,0 -0.48,-0.432 -0.48,-0.96 z m -2.70748,-71.37172 c -0.31006,-0.21989 -0.69921,-2.62599 -0.89734,-5.54828 l -0.34985,-5.16 h 9.96627 9.96627 l -0.25875,5.06982 c -0.14231,2.78839 -0.33533,5.14495 -0.42893,5.23679 -0.38482,0.37756 -17.49329,0.75939 -17.99767,0.40167 z"
       id="path1" />
  </g>
</svg>
